<?xml version="1.0" encoding="UTF-8" standalone="no"?>
<!DOCTYPE svg PUBLIC "-//W3C//DTD SVG 1.1//EN" "http://www.w3.org/Graphics/SVG/1.1/DTD/svg11.dtd">
<svg width="100%" height="100%" viewBox="0 0 109 178" version="1.1" xmlns="http://www.w3.org/2000/svg" xmlns:xlink="http://www.w3.org/1999/xlink" xml:space="preserve" xmlns:serif="http://www.serif.com/" style="fill-rule:evenodd;clip-rule:evenodd;stroke-linejoin:round;stroke-miterlimit:1.5;">
    <g transform="matrix(1,0,0,1,-630.754,-235.614)">
        <g transform="matrix(0.566929,0,0,0.375,417.199,224.409)">
            <rect x="451.608" y="354.331" width="41.667" height="118.11"/>
        </g>
        <g transform="matrix(1,0,0,1,318.898,-23.622)">
            <circle cx="366.142" cy="425.197" r="11.811"/>
        </g>
        <g transform="matrix(0.5,0,0,0.5,419.291,194.882)">
            <circle cx="531.496" cy="413.386" r="11.811" style="fill:white;"/>
        </g>
        <g transform="matrix(0.75,0,0,0.75,171.26,87.1063)">
            <ellipse cx="685.039" cy="280.512" rx="59.055" ry="79.724" style="fill:none;stroke:black;stroke-width:5.56px;"/>
        </g>
        <g transform="matrix(0.75,0,0,0.75,171.26,87.1063)">
            <ellipse cx="685.039" cy="280.512" rx="35.433" ry="79.724" style="fill:none;stroke:black;stroke-width:5.56px;"/>
        </g>
        <g transform="matrix(0.25,0,0,0.736111,513.78,89.895)">
            <ellipse cx="685.039" cy="280.512" rx="35.433" ry="79.724" style="fill:none;stroke:black;stroke-width:7.58px;"/>
        </g>
        <g transform="matrix(0.777817,0.777817,-0.707107,0.707107,360.995,-446.351)">
            <rect x="625.984" y="283.465" width="118.11" height="23.622"/>
        </g>
    </g>
</svg>
